<svg version="1.2" xmlns="http://www.w3.org/2000/svg" viewBox="0 0 456 456" width="456" height="456">
	<style>
		.s0 { fill: #ffffff } 
	</style>
	<g id="Layer">
		<path id="S" class="s0" aria-label="S"  d="m205 112.3v32.7q-19-9.2-36-13.6-16.9-4.5-32.7-4.5-27.4 0-42.3 10.6-14.8 10.6-14.8 30.2 0 16.5 9.8 24.9 10 8.3 37.5 13.5l20.3 4.1q37.5 7.2 55.3 25.3 17.9 17.9 17.9 48.1 0 36-24.3 54.6-24 18.6-70.7 18.6-17.6 0-37.5-4-19.8-4-41-11.8v-34.5q20.4 11.5 40 17.3 19.6 5.8 38.5 5.8 28.7 0 44.3-11.3 15.7-11.3 15.7-32.2 0-18.3-11.3-28.6-11.2-10.3-36.7-15.4l-20.4-4q-37.6-7.5-54.3-23.4-16.8-15.9-16.8-44.3 0-32.9 23.1-51.8 23.2-18.9 63.9-18.9 17.4 0 35.5 3.1 18.1 3.2 37 9.5z"/>
		<path id="A" class="s0" aria-label="A"  d="m374.6 256.5l-45.7-123.3-45.5 123.3zm-159.2 91.5l94.6-247.9h38.1l94.4 247.9h-34.8l-22.6-63.6h-111.7l-22.6 63.6z"/>
	</g>
</svg>