<svg xmlns="http://www.w3.org/2000/svg" width="96" height="96" viewBox="0 0 24 24">
	<path fill="none" stroke="currentColor" stroke-linecap="round" stroke-linejoin="round" stroke-width="1.5" d="M19.794 16.5A9 9 0 0 1 7.5 19.794M19.794 16.5A9 9 0 0 0 16.5 4.206M19.794 16.5L13.732 13M7.5 19.794A9 9 0 0 1 4.206 7.5M7.5 19.794l3.5-6.062M4.206 7.5A9 9 0 0 1 16.5 4.206M4.206 7.5l6.062 3.5M16.5 4.206L13 10.268M13.732 13a2 2 0 0 1-2.732.732M13.732 13A2 2 0 0 0 13 10.268m-2 3.464A2 2 0 0 1 10.268 11m0 0A2 2 0 0 1 13 10.268m.932 1.214l6.761-1.811m-8.175 4.26l1.811 6.762m-4.26-8.175l-6.762 1.811m8.175-4.26L9.671 3.306" />
</svg>